<?xml version="1.0" encoding="utf-8"?>
<!-- Generator: Adobe Illustrator 21.0.0, SVG Export Plug-In . SVG Version: 6.00 Build 0)  -->
<svg version="1.1" id="Layer_1" xmlns="http://www.w3.org/2000/svg"  x="0px" y="0px"
	 viewBox="426 229 351 458" style="enable-background:new 0 0 1200 1200;" xml:space="preserve">
<style type="text/css">.st1{fill-rule:evenodd;clip-rule:evenodd;fill:#29363A;}</style>
<g>
  <polygon class="st1" points="590.2,284.2 611.6,284.2 611.6,267.6 628.1,267.6 628.1,246.3 611.6,246.3 611.6,229.8 590.2,229.8
    590.2,246.3 573.7,246.3 573.7,267.6 590.2,267.6 		"/>
  <path class="st1" d="M739.7,318.1c-22.3-29.4-54-51.3-89.2-61.6l-1.2-0.4v12.6l0.7,0.2c24.5,7.7,47.2,21.5,65.7,39.9
    c30.5,30.5,47.3,71,47.3,114.2v89c0,43.1-16.8,83.7-47.3,114.2c-30.5,30.5-71,47.3-114.2,47.3c-43.1,0-83.7-16.8-114.2-47.3
    c-30.5-30.5-47.3-71-47.3-114.2v-89c0-43.1,16.8-83.7,47.3-114.2c17.3-17.3,37.6-30.1,60.4-38.2l0.6-0.2v-12.7l-1.3,0.4
    c-71.3,23.5-119.2,89.8-119.2,164.9v89c0,95.7,77.9,173.6,173.6,173.6c95.7,0,173.6-77.9,173.6-173.6v-89
    C775,384.7,762.8,348.4,739.7,318.1z"/>
  <path class="st1" d="M635.7,473.8v12.7c26.3,13,44.5,40.4,44.5,72c0,44.1-35.3,80-78.8,80s-78.8-35.9-78.8-80
    c0-31.6,18.2-59,44.5-72v-12.7c-32.8,13.7-56,46.5-56,84.6c0,50.4,40.5,91.5,90.3,91.5s90.3-41,90.3-91.5
    C691.7,520.3,668.5,487.5,635.7,473.8z"/>
  <path class="st1" d="M542.5,330.6c0.3-6.5-4.3-9.6-15.4-10c-0.6,10.7,2,15.6,8.5,16.2C540.2,337.3,542.3,335.1,542.5,330.6z"/>
  <path class="st1" d="M506.3,343.3l37.9,45.6l-72.8,3.1l0.5,11.5l24-1l-19.1,30.9l9.8,6.1l19.7-31.9c0,0,3.6-5.7,10.4-6l36.7-1.6
    l31.1,37.5c9.6,11.5,10.9,23.4,11,27.7v11.6c-9.3,17.7-20,26.6-29.4,34.6c-13.2,11.1-24.6,20.7-24.6,47
    c0,32.7,26.8,59.2,59.7,59.2l0,0h0h0l0,0c32.9,0,59.7-26.6,59.7-59.2c0-26.4-11.4-35.9-24.6-47c-9.4-7.9-20-16.9-29.3-34.5v-11.8
    c0.2-4.4,1.6-16.1,11-27.5l31.1-37.5l36.7,1.6c6.8,0.3,10.4,6,10.4,6l19.7,31.9l9.8-6.1l-19.1-30.9l24,1l0.5-11.5l-72.8-3.1
    l37.9-45.6l-8.9-7.4l-37.1,44.7l-3.6-23.5l-6.6-2.3l-4.7,4.4l3.8,25c0.2,1.7,0.9,8.8-3.6,14.1l-28.6,34.4v-73.2l37.6-37.6
    l-8.2-8.2l-35,35h-0.4l-35-35l-8.2,8.2l37.6,37.6v73.2L567,398.3c-4.4-5.3-3.8-12.4-3.6-14.1l3.8-25l-4.7-4.4l-6.6,2.3l-3.6,23.5
    L515.1,336L506.3,343.3z M553.2,558.4c0-21,8.1-27.8,20.4-38.2c6.6-5.6,14.4-12.1,21.9-22v107.5
    C572.1,602.8,553.2,582.4,553.2,558.4z M629.1,520.2c12.3,10.4,20.4,17.2,20.4,38.2c0,23.9-18.9,44.4-42.4,47.3V498.3
    C614.7,508.1,622.4,514.7,629.1,520.2z"/>
  <path class="st1" d="M488,381.8c4.6-0.7,6.1-3.3,5.2-7.7c-1.3-6.3-6.5-8.3-17.4-6C477.8,378.6,481.6,382.7,488,381.8z"/>
  <path class="st1" d="M667.2,336.8c6.5-0.7,9.1-5.5,8.5-16.2c-11.1,0.4-15.7,3.5-15.4,10C660.5,335.1,662.5,337.3,667.2,336.8z"/>
  <path class="st1" d="M726.9,368.1c-10.9-2.3-16.1-0.4-17.4,6c-0.9,4.4,0.6,7.1,5.2,7.7C721.2,382.7,724.9,378.6,726.9,368.1z"/>
</g>
</svg>
