<?xml version="1.0" encoding="utf-8"?>
<!-- Generator: Adobe Illustrator 21.0.0, SVG Export Plug-In . SVG Version: 6.00 Build 0)  -->
<svg version="1.1" id="Layer_1" xmlns="http://www.w3.org/2000/svg"  x="0px" y="0px"
	 viewBox="169 932 863 40" style="enable-background:new 0 0 1200 1200;" xml:space="preserve">
<style type="text/css">.st0{fill:#0A678F;}</style>
  <g>
    <path class="st0" d="M171.2,964.5l4.6-5.5c3.2,2.6,6.5,4.3,10.5,4.3c3.2,0,5.1-1.3,5.1-3.4c0-2-1.2-3-7.1-4.5
      c-7.1-1.8-11.6-3.8-11.6-10.8c0-6.4,5.1-10.6,12.3-10.6c5.1,0,9.5,1.6,13,4.5l-4,5.8c-3.1-2.2-6.2-3.5-9.1-3.5s-4.5,1.4-4.5,3.2
      c0,2.3,1.5,3.1,7.6,4.6c7.1,1.9,11.1,4.4,11.1,10.6c0,7-5.3,10.9-12.9,10.9C180.7,970.1,175.4,968.3,171.2,964.5z"/>
    <path class="st0" d="M206,934.5h7.7v35.1H206V934.5z"/>
  </g>
  <g>
    <path class="st0" d="M220.1,964.5l4.6-5.5c3.2,2.6,6.5,4.3,10.5,4.3c3.2,0,5.1-1.3,5.1-3.4c0-2-1.2-3-7.1-4.5
      c-7.1-1.8-11.6-3.8-11.6-10.8c0-6.4,5.1-10.6,12.3-10.6c5.1,0,9.5,1.6,13,4.5l-4,5.8c-3.1-2.2-6.2-3.5-9.1-3.5
      c-3,0-4.5,1.4-4.5,3.2c0,2.3,1.5,3.1,7.6,4.6c7.1,1.9,11.1,4.4,11.1,10.6c0,7-5.3,10.9-12.9,10.9
      C229.7,970.1,224.3,968.3,220.1,964.5z"/>
  </g>
  <g>
    <path class="st0" d="M262.1,941.6h-10.7v-7.1h29.1v7.1h-10.7v28h-7.7V941.6z"/>
    <path class="st0" d="M286.4,934.5h26.5v6.9h-18.8v7.1h16.5v6.9h-16.5v7.4h19.1v6.9h-26.7V934.5z"/>
    <path class="st0" d="M320,934.5h8.3l9.2,14.8l9.2-14.8h8.3v35.1h-7.7v-22.9l-9.9,15h-0.2l-9.8-14.8v22.8H320V934.5z"/>
    <path class="st0" d="M375.5,934.3h7.1l15,35.4h-8.1l-3.2-7.9h-14.8l-3.2,7.9h-7.9L375.5,934.3z M383.7,954.9l-4.7-11.4l-4.7,11.4
      H383.7z"/>
    <path class="st0" d="M418.1,934.5h13.7c11,0,18.7,7.6,18.7,17.6c0,9.9-7.6,17.6-18.7,17.6h-13.7V934.5z M431.8,962.6
      c6.3,0,10.6-4.3,10.6-10.6c0-6.2-4.3-10.6-10.6-10.6h-6v21.2H431.8z"/>
    <path class="st0" d="M457.4,934.5h26.5v6.9H465v7.1h16.5v6.9H465v7.4h19.1v6.9h-26.7V934.5z"/>
    <path class="st0" d="M506,934.5h8.3l9.2,14.8l9.2-14.8h8.3v35.1h-7.7v-22.9l-9.9,15h-0.2l-9.8-14.8v22.8H506V934.5z"/>
    <path class="st0" d="M549.5,934.5H576v6.9h-18.8v7.1h16.5v6.9h-16.5v7.4h19.1v6.9h-26.7V934.5z"/>
    <path class="st0" d="M583.1,934.5h13.7c11,0,18.7,7.6,18.7,17.6c0,9.9-7.6,17.6-18.7,17.6h-13.7V934.5z M596.8,962.6
      c6.3,0,10.6-4.3,10.6-10.6c0-6.2-4.3-10.6-10.6-10.6h-6v21.2H596.8z"/>
    <path class="st0" d="M622.7,934.5h7.7v35.1h-7.7V934.5z"/>
    <path class="st0" d="M637.6,952.1c0-10,7.5-18.2,18.3-18.2c6.6,0,10.3,2.5,13.6,5.7l-4.6,5.3c-2.7-2.5-5-3.9-9-3.9
      c-5.9,0-10.2,4.9-10.2,11c0,6,4.2,11,10.2,11c4,0,6.5-1.6,9.2-4.1l4.9,5.3c-3.6,3.9-7.6,6-14.4,6
      C645.3,970.2,637.6,962.2,637.6,952.1z"/>
    <path class="st0" d="M676.5,934.5h7.7v35.1h-7.7V934.5z"/>
    <path class="st0" d="M693,934.5h7.1l16.4,21.6v-21.6h7.6v35.1h-6.6l-17-22.3v22.3H693V934.5z"/>
    <path class="st0" d="M744.6,934.3h7.1l15,35.4h-8.1l-3.2-7.9h-14.8l-3.2,7.9h-7.9L744.6,934.3z M752.8,954.9l-4.7-11.4l-4.7,11.4
      H752.8z"/>
    <path class="st0" d="M799.3,934.3h7.1l15,35.4h-8.1l-3.2-7.9h-14.8l-3.2,7.9h-7.9L799.3,934.3z M807.4,954.9l-4.7-11.4l-4.7,11.4
      H807.4z"/>
    <path class="st0" d="M824.5,964.5l4.6-5.5c3.2,2.6,6.5,4.3,10.5,4.3c3.2,0,5.1-1.3,5.1-3.4c0-2-1.2-3-7.1-4.5
      c-7.1-1.8-11.6-3.8-11.6-10.8c0-6.4,5.1-10.6,12.3-10.6c5.1,0,9.5,1.6,13,4.5l-4,5.8c-3.1-2.2-6.2-3.5-9.1-3.5
      c-3,0-4.5,1.4-4.5,3.2c0,2.3,1.5,3.1,7.6,4.6c7.1,1.9,11.1,4.4,11.1,10.6c0,7-5.3,10.9-12.9,10.9
      C834,970.1,828.7,968.3,824.5,964.5z"/>
    <path class="st0" d="M859.3,934.5h7.7v35.1h-7.7V934.5z"/>
    <path class="st0" d="M873.4,964.5l4.6-5.5c3.2,2.6,6.5,4.3,10.5,4.3c3.2,0,5.1-1.3,5.1-3.4c0-2-1.2-3-7.1-4.5
      c-7.1-1.8-11.6-3.8-11.6-10.8c0-6.4,5.1-10.6,12.3-10.6c5.1,0,9.5,1.6,13,4.5l-4,5.8c-3.1-2.2-6.2-3.5-9.1-3.5
      c-3,0-4.5,1.4-4.5,3.2c0,2.3,1.5,3.1,7.6,4.6c7.1,1.9,11.1,4.4,11.1,10.6c0,7-5.3,10.9-12.9,10.9
      C883,970.1,877.6,968.3,873.4,964.5z"/>
    <path class="st0" d="M916.1,941.6h-10.7v-7.1h29.1v7.1h-10.7v28h-7.7V941.6z"/>
    <path class="st0" d="M940.7,934.5h7.7v35.1h-7.7V934.5z"/>
    <path class="st0" d="M957.2,934.5h13.7c11,0,18.7,7.6,18.7,17.6c0,9.9-7.6,17.6-18.7,17.6h-13.7V934.5z M970.9,962.6
      c6.3,0,10.6-4.3,10.6-10.6c0-6.2-4.3-10.6-10.6-10.6h-6v21.2H970.9z"/>
    <path class="st0" d="M1008.5,934.3h7.1l15,35.4h-8.1l-3.2-7.9h-14.8l-3.2,7.9h-7.9L1008.5,934.3z M1016.6,954.9l-4.7-11.4
      l-4.7,11.4H1016.6z"/>
  </g>
</svg>
