<?xml version="1.0" encoding="utf-8"?>
<!-- Generator: Adobe Illustrator 21.0.0, SVG Export Plug-In . SVG Version: 6.00 Build 0)  -->
<svg version="1.1" id="Layer_1" xmlns="http://www.w3.org/2000/svg"  x="0px" y="0px"
	 viewBox="168 742 863 231" style="enable-background:new 0 0 1200 1200;" xml:space="preserve">
<style type="text/css">.st0{fill:#0A678F;}</style>
	<g>
		<g>
			<path class="st0" d="M171.2,964.5l4.6-5.5c3.2,2.6,6.5,4.3,10.5,4.3c3.2,0,5.1-1.3,5.1-3.4c0-2-1.2-3-7.1-4.5
				c-7.1-1.8-11.6-3.8-11.6-10.8c0-6.4,5.1-10.6,12.3-10.6c5.1,0,9.5,1.6,13,4.5l-4,5.8c-3.1-2.2-6.2-3.5-9.1-3.5s-4.5,1.4-4.5,3.2
				c0,2.3,1.5,3.1,7.6,4.6c7.1,1.9,11.1,4.4,11.1,10.6c0,7-5.3,10.9-12.9,10.9C180.7,970.1,175.4,968.3,171.2,964.5z"/>
			<path class="st0" d="M206,934.5h7.7v35.1H206V934.5z"/>
		</g>
		<g>
			<path class="st0" d="M220.1,964.5l4.6-5.5c3.2,2.6,6.5,4.3,10.5,4.3c3.2,0,5.1-1.3,5.1-3.4c0-2-1.2-3-7.1-4.5
				c-7.1-1.8-11.6-3.8-11.6-10.8c0-6.4,5.1-10.6,12.3-10.6c5.1,0,9.5,1.6,13,4.5l-4,5.8c-3.1-2.2-6.2-3.5-9.1-3.5
				c-3,0-4.5,1.4-4.5,3.2c0,2.3,1.5,3.1,7.6,4.6c7.1,1.9,11.1,4.4,11.1,10.6c0,7-5.3,10.9-12.9,10.9
				C229.7,970.1,224.3,968.3,220.1,964.5z"/>
		</g>
		<g>
			<path class="st0" d="M262.1,941.6h-10.7v-7.1h29.1v7.1h-10.7v28h-7.7V941.6z"/>
			<path class="st0" d="M286.4,934.5h26.5v6.9h-18.8v7.1h16.5v6.9h-16.5v7.4h19.1v6.9h-26.7V934.5z"/>
			<path class="st0" d="M320,934.5h8.3l9.2,14.8l9.2-14.8h8.3v35.1h-7.7v-22.9l-9.9,15h-0.2l-9.8-14.8v22.8H320V934.5z"/>
			<path class="st0" d="M375.5,934.3h7.1l15,35.4h-8.1l-3.2-7.9h-14.8l-3.2,7.9h-7.9L375.5,934.3z M383.7,954.9l-4.7-11.4l-4.7,11.4
				H383.7z"/>
			<path class="st0" d="M418.1,934.5h13.7c11,0,18.7,7.6,18.7,17.6c0,9.9-7.6,17.6-18.7,17.6h-13.7V934.5z M431.8,962.6
				c6.3,0,10.6-4.3,10.6-10.6c0-6.2-4.3-10.6-10.6-10.6h-6v21.2H431.8z"/>
			<path class="st0" d="M457.4,934.5h26.5v6.9H465v7.1h16.5v6.9H465v7.4h19.1v6.9h-26.7V934.5z"/>
			<path class="st0" d="M506,934.5h8.3l9.2,14.8l9.2-14.8h8.3v35.1h-7.7v-22.9l-9.9,15h-0.2l-9.8-14.8v22.8H506V934.5z"/>
			<path class="st0" d="M549.5,934.5H576v6.9h-18.8v7.1h16.5v6.9h-16.5v7.4h19.1v6.9h-26.7V934.5z"/>
			<path class="st0" d="M583.1,934.5h13.7c11,0,18.7,7.6,18.7,17.6c0,9.9-7.6,17.6-18.7,17.6h-13.7V934.5z M596.8,962.6
				c6.3,0,10.6-4.3,10.6-10.6c0-6.2-4.3-10.6-10.6-10.6h-6v21.2H596.8z"/>
			<path class="st0" d="M622.7,934.5h7.7v35.1h-7.7V934.5z"/>
			<path class="st0" d="M637.6,952.1c0-10,7.5-18.2,18.3-18.2c6.6,0,10.3,2.5,13.6,5.7l-4.6,5.3c-2.7-2.5-5-3.9-9-3.9
				c-5.9,0-10.2,4.9-10.2,11c0,6,4.2,11,10.2,11c4,0,6.5-1.6,9.2-4.1l4.9,5.3c-3.6,3.9-7.6,6-14.4,6
				C645.3,970.2,637.6,962.2,637.6,952.1z"/>
			<path class="st0" d="M676.5,934.5h7.7v35.1h-7.7V934.5z"/>
			<path class="st0" d="M693,934.5h7.1l16.4,21.6v-21.6h7.6v35.1h-6.6l-17-22.3v22.3H693V934.5z"/>
			<path class="st0" d="M744.6,934.3h7.1l15,35.4h-8.1l-3.2-7.9h-14.8l-3.2,7.9h-7.9L744.6,934.3z M752.8,954.9l-4.7-11.4l-4.7,11.4
				H752.8z"/>
			<path class="st0" d="M799.3,934.3h7.1l15,35.4h-8.1l-3.2-7.9h-14.8l-3.2,7.9h-7.9L799.3,934.3z M807.4,954.9l-4.7-11.4l-4.7,11.4
				H807.4z"/>
			<path class="st0" d="M824.5,964.5l4.6-5.5c3.2,2.6,6.5,4.3,10.5,4.3c3.2,0,5.1-1.3,5.1-3.4c0-2-1.2-3-7.1-4.5
				c-7.1-1.8-11.6-3.8-11.6-10.8c0-6.4,5.1-10.6,12.3-10.6c5.1,0,9.5,1.6,13,4.5l-4,5.8c-3.1-2.2-6.2-3.5-9.1-3.5
				c-3,0-4.5,1.4-4.5,3.2c0,2.3,1.5,3.1,7.6,4.6c7.1,1.9,11.1,4.4,11.1,10.6c0,7-5.3,10.9-12.9,10.9
				C834,970.1,828.7,968.3,824.5,964.5z"/>
			<path class="st0" d="M859.3,934.5h7.7v35.1h-7.7V934.5z"/>
			<path class="st0" d="M873.4,964.5l4.6-5.5c3.2,2.6,6.5,4.3,10.5,4.3c3.2,0,5.1-1.3,5.1-3.4c0-2-1.2-3-7.1-4.5
				c-7.1-1.8-11.6-3.8-11.6-10.8c0-6.4,5.1-10.6,12.3-10.6c5.1,0,9.5,1.6,13,4.5l-4,5.8c-3.1-2.2-6.2-3.5-9.1-3.5
				c-3,0-4.5,1.4-4.5,3.2c0,2.3,1.5,3.1,7.6,4.6c7.1,1.9,11.1,4.4,11.1,10.6c0,7-5.3,10.9-12.9,10.9
				C883,970.1,877.6,968.3,873.4,964.5z"/>
			<path class="st0" d="M916.1,941.6h-10.7v-7.1h29.1v7.1h-10.7v28h-7.7V941.6z"/>
			<path class="st0" d="M940.7,934.5h7.7v35.1h-7.7V934.5z"/>
			<path class="st0" d="M957.2,934.5h13.7c11,0,18.7,7.6,18.7,17.6c0,9.9-7.6,17.6-18.7,17.6h-13.7V934.5z M970.9,962.6
				c6.3,0,10.6-4.3,10.6-10.6c0-6.2-4.3-10.6-10.6-10.6h-6v21.2H970.9z"/>
			<path class="st0" d="M1008.5,934.3h7.1l15,35.4h-8.1l-3.2-7.9h-14.8l-3.2,7.9h-7.9L1008.5,934.3z M1016.6,954.9l-4.7-11.4
				l-4.7,11.4H1016.6z"/>
		</g>
		<path class="st0" d="M194.3,858.5v20.7c4.7,2.5,15.8,5.6,28.3,5.6c19.8,0,33-8.9,33-25.6c0-12.5-7.6-17.4-24.3-22.1l-27.6-7.8
			c-17.8-5.1-33.9-15.6-33.9-40.6c0-30.8,26.1-45.7,58.9-45.7c20.3,0,35.5,4.2,47.3,7.6v34.6h-23.6v-18.7
			c-3.3-1.3-11.4-3.8-23.4-3.8c-23.2,0-32.8,10.5-32.8,22.5c0,13.6,10,18.3,24.1,21.9l24.1,6.2c17.8,4.7,37.7,14.5,37.7,41.9
			c0,31-23,49.3-60,49.3c-11.4,0-39-2.9-52.6-8.3v-37.7H194.3z"/>
		<polygon class="st0" points="304.3,883.5 320.1,883.5 321,764 304.3,764 304.3,745.7 361.8,745.7 361.8,764 346,764 345.1,883.5
			361.8,883.5 361.8,901.8 304.3,901.8 		"/>
		<path class="st0" d="M381,883.5h15.4l0.9-119.5H381v-18.3h69.3c32.1,0,47.3,18.5,47.3,41.3c0,27-17.4,39.2-37.2,41.3v0.4
			c8.7,0.7,14.5,8,19.8,16.9l16.9,28.5c4.5,7.4,8.7,9.4,13.8,9.4h5.8v18.3h-14.5c-13.2,0-19.2-1.3-28.3-16.5l-21.4-36.3
			c-6.5-11.1-9.8-13.6-17.2-13.6H422l-0.4,48.2h18.1v18.3H381V883.5z M441.4,815.7c17.6,0,29.9-9.4,29.9-26.1
			c0-16.3-10-25.6-28.1-25.6h-20.7l-0.4,51.7H441.4z"/>
		<path class="st0" d="M604.6,743c45,0,72.2,29.9,72.2,78c0,41.3-24.1,83.4-76.7,83.4c-45.5,0-74.2-30.1-74.2-78
			C525.9,777.6,556.5,743,604.6,743 M601,883.5c41.2,0,48.2-39.9,48.2-61.1c0-27.9-9.4-58.4-46.2-58.4c-26.1,0-49.5,17.8-49.5,61.3
			C553.6,855.6,568.3,883.5,601,883.5"/>
		<path class="st0" d="M695.6,883.5h15.2l0.9-119.5H692v-18.3h41l72.2,94.3c4.7,6.2,11.4,16.5,15.6,23.4h0.4l-0.9-99.4h-17.4v-18.3
			h54.4V764h-15.2l-0.9,137.8h-20.3l-78-101.2c-4.5-5.8-8.7-12-10.9-16.5l-0.4,0.4l0.9,99h17.2v18.3h-54.2V883.5z"/>
		<path class="st0" d="M861,883.5h13.4l56.6-137.8h27.7l52.4,137.8h13.8v18.3h-57.1v-18.3h14.3l-13.4-38.8h-54.9l-14.5,38.8h16.1
			v18.3H861V883.5z M946.9,780.9c-2.5-6.9-3.3-10.9-4-14.3h-0.4c-0.7,3.1-1.6,7.4-4.2,14.3L921,825.1h41.3L946.9,780.9z"/>
	</g>
</svg>
