<?xml version="1.0" encoding="utf-8"?>
<!-- Generator: Adobe Illustrator 21.0.0, SVG Export Plug-In . SVG Version: 6.00 Build 0)  -->
<svg version="1.1" id="Layer_1" xmlns="http://www.w3.org/2000/svg"  x="0px" y="0px"
	 viewBox="168 742 863 163" style="enable-background:new 0 0 1200 1200;" xml:space="preserve">
<style type="text/css">.st0{fill:#0A678F;}</style>
	<g>
		<path class="st0" d="M194.3,858.5v20.7c4.7,2.5,15.8,5.6,28.3,5.6c19.8,0,33-8.9,33-25.6c0-12.5-7.6-17.4-24.3-22.1l-27.6-7.8
			c-17.8-5.1-33.9-15.6-33.9-40.6c0-30.8,26.1-45.7,58.9-45.7c20.3,0,35.5,4.2,47.3,7.6v34.6h-23.6v-18.7
			c-3.3-1.3-11.4-3.8-23.4-3.8c-23.2,0-32.8,10.5-32.8,22.5c0,13.6,10,18.3,24.1,21.9l24.1,6.2c17.8,4.7,37.7,14.5,37.7,41.9
			c0,31-23,49.3-60,49.3c-11.4,0-39-2.9-52.6-8.3v-37.7H194.3z"/>
		<polygon class="st0" points="304.3,883.5 320.1,883.5 321,764 304.3,764 304.3,745.7 361.8,745.7 361.8,764 346,764 345.1,883.5
			361.8,883.5 361.8,901.8 304.3,901.8 		"/>
		<path class="st0" d="M381,883.5h15.4l0.9-119.5H381v-18.3h69.3c32.1,0,47.3,18.5,47.3,41.3c0,27-17.4,39.2-37.2,41.3v0.4
			c8.7,0.7,14.5,8,19.8,16.9l16.9,28.5c4.5,7.4,8.7,9.4,13.8,9.4h5.8v18.3h-14.5c-13.2,0-19.2-1.3-28.3-16.5l-21.4-36.3
			c-6.5-11.1-9.8-13.6-17.2-13.6H422l-0.4,48.2h18.1v18.3H381V883.5z M441.4,815.7c17.6,0,29.9-9.4,29.9-26.1
			c0-16.3-10-25.6-28.1-25.6h-20.7l-0.4,51.7H441.4z"/>
		<path class="st0" d="M604.6,743c45,0,72.2,29.9,72.2,78c0,41.3-24.1,83.4-76.7,83.4c-45.5,0-74.2-30.1-74.2-78
			C525.9,777.6,556.5,743,604.6,743 M601,883.5c41.2,0,48.2-39.9,48.2-61.1c0-27.9-9.4-58.4-46.2-58.4c-26.1,0-49.5,17.8-49.5,61.3
			C553.6,855.6,568.3,883.5,601,883.5"/>
		<path class="st0" d="M695.6,883.5h15.2l0.9-119.5H692v-18.3h41l72.2,94.3c4.7,6.2,11.4,16.5,15.6,23.4h0.4l-0.9-99.4h-17.4v-18.3
			h54.4V764h-15.2l-0.9,137.8h-20.3l-78-101.2c-4.5-5.8-8.7-12-10.9-16.5l-0.4,0.4l0.9,99h17.2v18.3h-54.2V883.5z"/>
		<path class="st0" d="M861,883.5h13.4l56.6-137.8h27.7l52.4,137.8h13.8v18.3h-57.1v-18.3h14.3l-13.4-38.8h-54.9l-14.5,38.8h16.1
			v18.3H861V883.5z M946.9,780.9c-2.5-6.9-3.3-10.9-4-14.3h-0.4c-0.7,3.1-1.6,7.4-4.2,14.3L921,825.1h41.3L946.9,780.9z"/>
	</g>
</svg>
