<?xml version="1.0" encoding="utf-8"?>
<!-- Generator: Adobe Illustrator 21.0.0, SVG Export Plug-In . SVG Version: 6.00 Build 0)  -->
<svg version="1.1" id="Layer_1" xmlns="http://www.w3.org/2000/svg"  x="0px" y="0px"
	 viewBox="165 228 870 678" style="enable-background:new 0 0 1200 1200;" xml:space="preserve">
<style type="text/css">
	.st0{fill:#0A678F;}
	.st1{fill-rule:evenodd;clip-rule:evenodd;fill:#0A678F;}
</style>
<g>
	<g>
		<path class="st0" d="M194.3,858.5v20.7c4.7,2.5,15.8,5.6,28.3,5.6c19.8,0,33-8.9,33-25.6c0-12.5-7.6-17.4-24.3-22.1l-27.6-7.8
			c-17.8-5.1-33.9-15.6-33.9-40.6c0-30.8,26.1-45.7,58.9-45.7c20.3,0,35.5,4.2,47.3,7.6v34.6h-23.6v-18.7
			c-3.3-1.3-11.4-3.8-23.4-3.8c-23.2,0-32.8,10.5-32.8,22.5c0,13.6,10,18.3,24.1,21.9l24.1,6.2c17.8,4.7,37.7,14.5,37.7,41.9
			c0,31-23,49.3-60,49.3c-11.4,0-39-2.9-52.6-8.3v-37.7H194.3z"/>
		<polygon class="st0" points="304.3,883.5 320.1,883.5 321,764 304.3,764 304.3,745.7 361.8,745.7 361.8,764 346,764 345.1,883.5
			361.8,883.5 361.8,901.8 304.3,901.8 		"/>
		<path class="st0" d="M381,883.5h15.4l0.9-119.5H381v-18.3h69.3c32.1,0,47.3,18.5,47.3,41.3c0,27-17.4,39.2-37.2,41.3v0.4
			c8.7,0.7,14.5,8,19.8,16.9l16.9,28.5c4.5,7.4,8.7,9.4,13.8,9.4h5.8v18.3h-14.5c-13.2,0-19.2-1.3-28.3-16.5l-21.4-36.3
			c-6.5-11.1-9.8-13.6-17.2-13.6H422l-0.4,48.2h18.1v18.3H381V883.5z M441.4,815.7c17.6,0,29.9-9.4,29.9-26.1
			c0-16.3-10-25.6-28.1-25.6h-20.7l-0.4,51.7H441.4z"/>
		<path class="st0" d="M604.6,743c45,0,72.2,29.9,72.2,78c0,41.3-24.1,83.4-76.7,83.4c-45.5,0-74.2-30.1-74.2-78
			C525.9,777.6,556.5,743,604.6,743 M601,883.5c41.2,0,48.2-39.9,48.2-61.1c0-27.9-9.4-58.4-46.2-58.4c-26.1,0-49.5,17.8-49.5,61.3
			C553.6,855.6,568.3,883.5,601,883.5"/>
		<path class="st0" d="M695.6,883.5h15.2l0.9-119.5H692v-18.3h41l72.2,94.3c4.7,6.2,11.4,16.5,15.6,23.4h0.4l-0.9-99.4h-17.4v-18.3
			h54.4V764h-15.2l-0.9,137.8h-20.3l-78-101.2c-4.5-5.8-8.7-12-10.9-16.5l-0.4,0.4l0.9,99h17.2v18.3h-54.2V883.5z"/>
		<path class="st0" d="M861,883.5h13.4l56.6-137.8h27.7l52.4,137.8h13.8v18.3h-57.1v-18.3h14.3l-13.4-38.8h-54.9l-14.5,38.8h16.1
			v18.3H861V883.5z M946.9,780.9c-2.5-6.9-3.3-10.9-4-14.3h-0.4c-0.7,3.1-1.6,7.4-4.2,14.3L921,825.1h41.3L946.9,780.9z"/>
	</g>
	<g>
		<polygon class="st1" points="590.2,284.2 611.6,284.2 611.6,267.6 628.1,267.6 628.1,246.3 611.6,246.3 611.6,229.8 590.2,229.8
			590.2,246.3 573.7,246.3 573.7,267.6 590.2,267.6 		"/>
		<path class="st1" d="M739.7,318.1c-22.3-29.4-54-51.3-89.2-61.6l-1.2-0.4v12.6l0.7,0.2c24.5,7.7,47.2,21.5,65.7,39.9
			c30.5,30.5,47.3,71,47.3,114.2v89c0,43.1-16.8,83.7-47.3,114.2c-30.5,30.5-71,47.3-114.2,47.3c-43.1,0-83.7-16.8-114.2-47.3
			c-30.5-30.5-47.3-71-47.3-114.2v-89c0-43.1,16.8-83.7,47.3-114.2c17.3-17.3,37.6-30.1,60.4-38.2l0.6-0.2v-12.7l-1.3,0.4
			c-71.3,23.5-119.2,89.8-119.2,164.9v89c0,95.7,77.9,173.6,173.6,173.6c95.7,0,173.6-77.9,173.6-173.6v-89
			C775,384.7,762.8,348.4,739.7,318.1z"/>
		<path class="st1" d="M635.7,473.8v12.7c26.3,13,44.5,40.4,44.5,72c0,44.1-35.3,80-78.8,80s-78.8-35.9-78.8-80
			c0-31.6,18.2-59,44.5-72v-12.7c-32.8,13.7-56,46.5-56,84.6c0,50.4,40.5,91.5,90.3,91.5s90.3-41,90.3-91.5
			C691.7,520.3,668.5,487.5,635.7,473.8z"/>
		<path class="st1" d="M542.5,330.6c0.3-6.5-4.3-9.6-15.4-10c-0.6,10.7,2,15.6,8.5,16.2C540.2,337.3,542.3,335.1,542.5,330.6z"/>
		<path class="st1" d="M506.3,343.3l37.9,45.6l-72.8,3.1l0.5,11.5l24-1l-19.1,30.9l9.8,6.1l19.7-31.9c0,0,3.6-5.7,10.4-6l36.7-1.6
			l31.1,37.5c9.6,11.5,10.9,23.4,11,27.7v11.6c-9.3,17.7-20,26.6-29.4,34.6c-13.2,11.1-24.6,20.7-24.6,47
			c0,32.7,26.8,59.2,59.7,59.2l0,0h0h0l0,0c32.9,0,59.7-26.6,59.7-59.2c0-26.4-11.4-35.9-24.6-47c-9.4-7.9-20-16.9-29.3-34.5v-11.8
			c0.2-4.4,1.6-16.1,11-27.5l31.1-37.5l36.7,1.6c6.8,0.3,10.4,6,10.4,6l19.7,31.9l9.8-6.1l-19.1-30.9l24,1l0.5-11.5l-72.8-3.1
			l37.9-45.6l-8.9-7.4l-37.1,44.7l-3.6-23.5l-6.6-2.3l-4.7,4.4l3.8,25c0.2,1.7,0.9,8.8-3.6,14.1l-28.6,34.4v-73.2l37.6-37.6
			l-8.2-8.2l-35,35h-0.4l-35-35l-8.2,8.2l37.6,37.6v73.2L567,398.3c-4.4-5.3-3.8-12.4-3.6-14.1l3.8-25l-4.7-4.4l-6.6,2.3l-3.6,23.5
			L515.1,336L506.3,343.3z M553.2,558.4c0-21,8.1-27.8,20.4-38.2c6.6-5.6,14.4-12.1,21.9-22v107.5
			C572.1,602.8,553.2,582.4,553.2,558.4z M629.1,520.2c12.3,10.4,20.4,17.2,20.4,38.2c0,23.9-18.9,44.4-42.4,47.3V498.3
			C614.7,508.1,622.4,514.7,629.1,520.2z"/>
		<path class="st1" d="M488,381.8c4.6-0.7,6.1-3.3,5.2-7.7c-1.3-6.3-6.5-8.3-17.4-6C477.8,378.6,481.6,382.7,488,381.8z"/>
		<path class="st1" d="M667.2,336.8c6.5-0.7,9.1-5.5,8.5-16.2c-11.1,0.4-15.7,3.5-15.4,10C660.5,335.1,662.5,337.3,667.2,336.8z"/>
		<path class="st1" d="M726.9,368.1c-10.9-2.3-16.1-0.4-17.4,6c-0.9,4.4,0.6,7.1,5.2,7.7C721.2,382.7,724.9,378.6,726.9,368.1z"/>
	</g>
</g>
</svg>
